<svg width="16" height="27" viewBox="0 0 16 27" fill="none" xmlns="http://www.w3.org/2000/svg">
<path d="M7.98214 0C9.0983 0 10.138 0.246112 11.1 0.736201C12.062 1.22736 12.9115 1.90056 13.6479 2.75635C14.3839 3.61267 14.9602 4.6078 15.3761 5.7444C15.7916 6.88046 16 8.10836 16 9.42647C16 10.7446 15.7916 11.9378 15.3761 13.0877C14.9602 14.2382 14.3839 15.2483 13.6479 16.1174C12.911 16.9876 12.062 17.6678 11.1 18.1584C10.138 18.6495 9.0983 18.8951 7.98214 18.8951H3.1717V26.4701H0L0 9.42647C0 8.10836 0.207499 6.88046 0.623852 5.7444C1.0393 4.60833 1.60936 3.61267 2.33447 2.75635C3.05868 1.9011 3.90812 1.22736 4.88232 0.736201C5.85607 0.246112 6.8895 0 7.98214 0ZM9.87088 14.708C10.4644 14.4133 10.9812 14.007 11.421 13.4876C11.8604 12.9687 12.2049 12.3585 12.4544 11.657C12.704 10.956 12.8288 10.2123 12.8288 9.42647C12.8288 8.64062 12.704 7.90495 12.4544 7.21733C12.2049 6.53025 11.8604 5.92698 11.421 5.40753C10.9812 4.88861 10.4644 4.4818 9.87088 4.18711C9.27686 3.89242 8.64713 3.74507 7.98214 3.74507C7.31715 3.74507 6.6933 3.89242 6.11149 4.18711C5.52923 4.4818 5.01839 4.88861 4.57898 5.40753C4.13912 5.92698 3.7951 6.53025 3.54556 7.21733C3.29602 7.90495 3.17125 8.64169 3.17125 9.42647V15.15H7.98214C8.64713 15.15 9.27686 15.0027 9.87088 14.708Z" fill="url(#paint0_linear_1627_84)"/>
<defs>
<linearGradient id="paint0_linear_1627_84" x1="1.60164" y1="-2.64887" x2="13.4908" y2="28.5832" gradientUnits="userSpaceOnUse">
<stop stop-color="#EA13D8"/>
<stop offset="1" stop-color="#078BE5"/>
</linearGradient>
</defs>
</svg>
